<?xml version="1.0" encoding="utf-8"?>
<!-- Generator: Adobe Illustrator 24.0.1, SVG Export Plug-In . SVG Version: 6.00 Build 0)  -->
<svg version="1.1" xmlns="http://www.w3.org/2000/svg" xmlns:xlink="http://www.w3.org/1999/xlink" x="0px" y="0px"
	 viewBox="0 0 566.9 161.1" style="enable-background:new 0 0 566.9 161.1;" xml:space="preserve">
<style type="text/css">
	.st0{fill:#FFFFFF;}
</style>
<g id="Laag_2">
	<rect x="-0.9" y="0" width="567.9" height="160.5"/>
</g>
<g id="Layer_1" xmlns:cc="http://creativecommons.org/ns#" xmlns:dc="http://purl.org/dc/elements/1.1/" xmlns:rdf="http://www.w3.org/1999/02/22-rdf-syntax-ns#" xmlns:svg="http://www.w3.org/2000/svg">
	<path id="path2" class="st0" d="M84.6,152.6L84.6,152.6c16.6-1.7,32-9,43.9-20.8l0,0c13.1-13.1,21.3-31.3,21.3-51.2
		s-8.1-38.1-21.2-51.2v-0.2c-12-12-27.2-19.1-43.9-20.8l0,0c-1.1-0.2-2.2-0.2-3.3-0.3c-0.2,0-0.3,0-0.5,0c-1.2,0-2.5-0.2-3.7-0.2
		l0,0l0,0C55,8,34.9,18.1,21.7,34c-0.2,0.2-0.3,0.3-0.5,0.5l-0.2,0.2c-2.2,2.6-4.2,5.4-5.9,8.4c0,0-0.2,0.2-0.2,0.3
		c-5.4,8.9-8.9,19.1-10,30c0,0.5,0,0.9-0.2,1.4c-0.2,2-0.3,3.9-0.3,5.9l0,0l0,0c0,40,32.5,72.5,72.5,72.5l0,0l0,0
		c1.2,0,2.5,0,3.7-0.2c0.2,0,0.3,0,0.5,0C82.4,153,83.5,152.8,84.6,152.6z M85.8,138.5c-0.8,0.2-1.6,0.2-2.3,0.3c-0.3,0-0.5,0-0.8,0
		c-0.6,0-1.4,0.2-2,0.2c-0.3,0-0.5,0-0.8,0c-0.9,0-1.9,0-2.8,0c-32.4,0-58.5-26.3-58.5-58.5c0-2.8,0.2-5.6,0.6-8.2
		c0-0.2,0-0.5,0.2-0.6c0-0.5,0.2-0.8,0.2-1.2c0.2-0.6,0.2-1.1,0.3-1.7c0.8-4.2,2.2-8.1,3.9-12c9.2-20.5,29.7-34.8,53.5-34.8
		c0.9,0,1.9,0,2.8,0c0.3,0,0.5,0,0.8,0c0.8,0,1.4,0.2,2.2,0.2c0.3,0,0.5,0,0.8,0c0.8,0.2,1.6,0.2,2.3,0.3c0.2,0,0.3,0,0.3,0
		c10.1,1.6,19.4,5.8,27.1,11.8l-46,46l46,46C105.7,132.3,95.9,136.9,85.8,138.5C85.5,138.8,86,138.5,85.8,138.5z M123.1,116.7
		L87,80.6l36.1-36.1c7.8,10,12.6,22.6,12.6,36.1S131.1,106.8,123.1,116.7z"/>
	<g id="g22" transform="translate(-212.5,-369.601)">
		<path id="path4" class="st0" d="M431.3,404.1h9.4c1.3,0,2.6,0.2,3.7,0.4c1.3,0.2,2.2,0.7,3.3,1.3c0.9,0.6,1.7,1.3,2.4,2.4
			c0.7,1.1,0.9,2.2,0.9,3.5c0,1.8-0.6,3.3-1.5,4.4c-0.9,1.1-2.2,2-3.9,2.4l0,0c0.9,0,1.8,0.4,2.8,0.7c0.9,0.4,1.7,0.9,2.2,1.7
			c0.6,0.7,1.1,1.5,1.5,2.4c0.4,0.9,0.6,1.8,0.6,2.8c0,1.7-0.4,3.1-1.1,4.2c-0.7,1.1-1.7,2-2.8,2.6c-1.1,0.7-2.4,1.1-3.9,1.3
			c-1.5,0.2-2.8,0.4-4.2,0.4h-9.2v-30.3L431.3,404.1L431.3,404.1z M434.8,416.9h5c0.9,0,1.7,0,2.6-0.2c0.7-0.2,1.5-0.4,2.2-0.7
			c0.7-0.4,1.1-0.9,1.7-1.5c0.6-0.6,0.6-1.5,0.6-2.6c0-0.9-0.2-1.7-0.6-2.4c-0.4-0.6-0.9-1.1-1.5-1.5c-0.6-0.4-1.3-0.6-2.2-0.7
			c-0.7-0.2-1.7-0.2-2.4-0.2h-5.3L434.8,416.9z M434.8,431.1h6.1c0.9,0,1.8-0.2,2.6-0.4c0.9-0.2,1.7-0.6,2.4-0.9
			c0.7-0.4,1.3-0.9,1.7-1.7c0.4-0.7,0.7-1.5,0.7-2.6c0-1.1-0.2-2-0.6-2.8c-0.4-0.7-0.9-1.3-1.7-1.7c-0.7-0.4-1.5-0.7-2.4-0.9
			c-0.9-0.2-1.8-0.2-2.8-0.2h-6.2v11L434.8,431.1L434.8,431.1z"/>
		<path id="path6" class="st0" d="M464.5,404.1h7.7c1.5,0,2.9,0,4.4,0.2c1.5,0.2,2.8,0.6,3.9,1.1c1.1,0.6,2,1.5,2.8,2.6
			c0.7,1.1,1.1,2.6,1.1,4.6c0,2.2-0.7,4-2,5.5c-1.3,1.5-3.3,2.2-5.7,2.6l8.6,14.1h-4.2l-8.3-13.8h-4.6v13.8h-3.7V404.1z
			 M468.2,417.5h3.3c0.9,0,2,0,3.1,0c1.1,0,2-0.2,2.9-0.6c0.9-0.4,1.7-0.7,2.2-1.5c0.6-0.7,0.9-1.7,0.9-2.9c0-1.1-0.2-2-0.7-2.6
			c-0.4-0.7-0.9-1.1-1.7-1.5c-0.7-0.4-1.5-0.6-2.4-0.7c-0.9-0.2-1.8-0.2-2.6-0.2h-5.1V417.5z"/>
		<path id="path8" class="st0" d="M510.8,435.3c-2.4,0-4.4-0.4-6.4-1.3c-2-0.7-3.7-1.8-5-3.3c-1.5-1.5-2.6-3.1-3.3-5.1
			c-0.7-2-1.1-4-1.1-6.4s0.4-4.4,1.1-6.4c0.7-2,1.8-3.7,3.3-5.1c1.5-1.5,3.1-2.6,5-3.3c2-0.7,4-1.3,6.4-1.3c2.4,0,4.4,0.4,6.4,1.3
			c2,0.7,3.7,1.8,5,3.3c1.5,1.5,2.6,3.1,3.3,5.1c0.7,2,1.1,4,1.1,6.4s-0.4,4.4-1.1,6.4c-0.7,2-1.8,3.7-3.3,5.1
			c-1.5,1.5-3.1,2.6-5,3.3C515.2,434.9,513,435.3,510.8,435.3z M510.8,432c1.8,0,3.5-0.4,5-0.9c1.5-0.7,2.8-1.7,3.9-2.8
			c1.1-1.1,1.8-2.6,2.6-4c0.6-1.5,0.9-3.1,0.9-5c0-1.8-0.4-3.5-0.9-5c-0.6-1.5-1.5-2.9-2.6-4c-1.1-1.1-2.4-2-3.9-2.8
			c-1.5-0.7-3.1-0.9-5-0.9c-1.8,0-3.5,0.4-5,0.9c-1.5,0.7-2.8,1.7-3.9,2.8c-1.1,1.1-1.8,2.6-2.4,4c-0.6,1.5-0.9,3.1-0.9,5
			c0,1.8,0.4,3.5,0.9,5c0.6,1.5,1.5,2.9,2.4,4c1.1,1.1,2.4,2,3.9,2.8C507.3,431.6,509,432,510.8,432z"/>
		<path id="path10" class="st0" d="M561.9,423.3c0,1.7-0.4,2.8-0.7,4.2c-0.4,1.5-1.1,2.8-2,3.9c-0.9,1.1-2,2-3.5,2.8
			c-1.5,0.7-3.3,1.1-5.3,1.1s-3.9-0.4-5.3-1.1s-2.6-1.7-3.5-2.8c-0.9-1.1-1.7-2.4-2-3.9c-0.4-1.5-0.6-3.1-0.6-4.8v-18.9h3.7v18.4
			c0,1.3,0.2,2.4,0.4,3.5c0.2,1.1,0.7,2.2,1.3,3.1c0.6,0.9,1.5,1.7,2.4,2.2c0.9,0.6,2.2,0.7,3.9,0.7c1.5,0,2.8-0.2,3.9-0.7
			c0.9-0.6,1.8-1.3,2.4-2.2s1.1-1.8,1.3-3.1c0.2-1.1,0.4-2.4,0.4-3.5v-18.4h3.7v18.9L561.9,423.3z"/>
		<path id="path12" class="st0" d="M572,404.1h4l7,25.4l0,0l7.5-25.4h4l7.5,25.4l0,0l7-25.4h3.9l-9,30.5h-3.9l-7.5-25.9l0,0
			l-7.5,25.9h-4L572,404.1z"/>
		<path id="path14" class="st0" d="M623.3,404.1h19.1v3.3h-15.6v9.6h14.5v3.3h-14.5v10.8h16.4v3.3h-20v-30.3L623.3,404.1z"/>
		<path id="path16" class="st0" d="M654.7,404.1h7.7c1.5,0,2.9,0,4.4,0.2c1.5,0.2,2.8,0.6,3.9,1.1c1.1,0.6,2,1.5,2.8,2.6
			c0.7,1.1,1.1,2.6,1.1,4.6c0,2.2-0.7,4-2,5.5c-1.3,1.5-3.3,2.2-5.7,2.6l8.6,14.1h-4.4l-8.3-13.8h-4.6v13.8h-3.7v-30.7H654.7z
			 M658.4,417.5h3.3c0.9,0,2,0,3.1,0s2-0.2,2.9-0.6c0.9-0.4,1.7-0.7,2.2-1.5c0.6-0.7,0.9-1.7,0.9-2.9c0-1.1-0.2-2-0.7-2.6
			c-0.4-0.7-0.9-1.1-1.7-1.5c-0.7-0.4-1.5-0.6-2.4-0.7c-0.9-0.2-1.8-0.2-2.6-0.2h-5.1L658.4,417.5L658.4,417.5z"/>
		<path id="path18" class="st0" d="M687.2,404.1h3.7v30.5h-3.7V404.1z"/>
		<path id="path20" class="st0" d="M717.9,426.7c0,1.1-0.2,2-0.4,3.1c-0.4,1.1-0.7,2-1.5,2.8c-0.7,0.9-1.7,1.5-2.8,2
			c-1.1,0.6-2.4,0.7-4,0.7c-2.2,0-4-0.6-5.3-1.7c-1.5-1.1-2.4-2.8-2.8-5l3.7-0.7c0.2,1.3,0.7,2.2,1.5,2.9c0.7,0.7,1.8,1.1,3.1,1.1
			c1.1,0,1.8-0.2,2.6-0.6c0.7-0.4,1.1-0.9,1.5-1.5c0.4-0.6,0.6-1.3,0.7-2c0.2-0.7,0.2-1.7,0.2-2.4v-21.3h3.7v22.4L717.9,426.7z"/>
	</g>
	<path id="path24" class="st0" d="M226.1,81.9l-22.8,24.6l24.8,25.9v0.6h-11.9l-21.5-22.8v22.8H185V81.5h9.7v21.9l19.5-21.7h12.1
		v0.2H226.1z"/>
	<path id="path26" class="st0" d="M288.4,132.9h-8.3l-6.4-16.2l-5.5-16.2l-5.3,16.4l-6.2,16h-8.3l-18.9-51.4h10.8l12.1,37.1
		l12.5-37.1h6.2l12.9,37.1l11.8-37.1h10.8L288.4,132.9z"/>
	<path id="path28" class="st0" d="M343.9,123.2h-26.8l-4.4,9.7h-10.5l23.2-51.4H336l23.2,51.4h-10.7L343.9,123.2z M330.5,92.3
		l-9.6,21.9h19.1L330.5,92.3z"/>
	<path id="path30" class="st0" d="M408,132.9h-11.6l-15.1-17.3H372v17.3h-9.7V81.5c8.1,0,16.4,0,24.4,0c12.1,0,18.6,8.1,18.6,17.1
		c0,7-3.3,14.1-13,16.2l15.6,17.6v0.6L408,132.9z M372.2,90.5V107h14.7c6.2,0,8.8-4,8.8-8.3c0-4-2.8-8.3-8.8-8.3H372.2z"/>
	<path id="path32" class="st0" d="M424.6,90.3h-16.4v-8.8c14.9,0,27.4,0,42.3,0v8.8h-16.4v42.6h-9.7V90.3H424.6z"/>
	<path id="path34" class="st0" d="M491.5,111.1c0,13.2-8.5,23-22.6,23c-13.2,0-22.6-7.9-22.6-22.4h9.6c0,8.8,4.2,13.2,13,13.2
		c8.8,0,12.9-6.1,12.9-14V90.5h-15.4v-9c8.5,0,16.7,0,25.2,0V111.1z"/>
	<path id="path36" class="st0" d="M539,132.9h-38.6c0-17.1,0-34.4,0-51.4H539v9.4h-28.8v11.8h27.9v9h-27.9v11.6H539V132.9z"/>
	<rect id="rect38" x="185.3" y="48.1" class="st0" width="21.5" height="3.1"/>
	<rect id="rect40" x="517.4" y="48.1" class="st0" width="21.5" height="3.1"/>
</g>
</svg>
